<?xml version="1.0" encoding="UTF-8"?>
<svg version="1.1" xmlns="http://www.w3.org/2000/svg" width="200" height="200">
<path d="M0 0 C1.15075516 -0.0071553 2.30151031 -0.01431061 3.48713684 -0.02168274 C4.74587616 -0.02437164 6.00461548 -0.02706055 7.30149841 -0.02983093 C8.64383112 -0.03609931 9.9861621 -0.04274644 11.32849121 -0.04974365 C15.73411357 -0.07074935 20.13973612 -0.08114565 24.5453949 -0.09111023 C26.06569372 -0.09515968 27.58599236 -0.09927665 29.10629082 -0.10346031 C36.25302946 -0.12250763 43.39975782 -0.13673726 50.54651695 -0.14507228 C58.77649225 -0.15483067 67.00619759 -0.1811153 75.23607785 -0.22157317 C81.60910369 -0.25181932 87.98205255 -0.26654934 94.35514873 -0.26985329 C98.15561506 -0.27219492 101.95579286 -0.28103805 105.75618172 -0.30631447 C109.33745339 -0.32974847 112.91824974 -0.33376777 116.49957848 -0.32355309 C118.42380752 -0.32282864 120.34801325 -0.34181346 122.2721405 -0.36161804 C134.22278882 -0.29072223 143.63807906 2.81021403 152.35398865 11.14717102 C161.60786519 21.00575633 163.95664773 30.64079009 163.88743591 43.94355774 C163.89450877 45.30486479 163.90325949 46.66616398 163.9135437 48.02745056 C163.93589698 51.69709933 163.93313101 55.36631394 163.92422223 59.03600454 C163.91908276 62.11224081 163.92642889 65.1883976 163.9336943 68.26462567 C163.9506493 75.52876857 163.94717285 82.7927012 163.93040466 90.05683899 C163.91349357 97.52217055 163.92931354 104.9869169 163.96162754 112.45218456 C163.9884192 118.88823293 163.99557359 125.32410022 163.98711246 131.76019871 C163.98221026 135.5924759 163.98425011 139.42440147 164.00489998 143.25663376 C164.02340839 146.86358507 164.01711696 150.46970263 163.99270058 154.07661057 C163.98539683 156.01129232 164.0024308 157.94601955 164.02052307 159.88063049 C163.89133005 171.92832961 160.19512597 181.27248366 151.82273865 189.95185852 C144.80654572 196.19094147 136.91126734 200.37757939 127.39826965 200.42132568 C126.22938202 200.43130081 125.06049438 200.44127594 123.85618591 200.45155334 C122.58750671 200.45221802 121.31882751 200.45288269 120.01170349 200.4535675 C118.6509913 200.46119611 117.2902834 200.46962481 115.92958069 200.47879028 C112.24328899 200.50067902 108.55708022 200.50952711 104.87073088 200.51461673 C102.5626462 200.51826838 100.25458297 200.52451275 97.9465065 200.53161812 C89.87968754 200.55609758 81.81293269 200.56916029 73.74607849 200.57270813 C66.25133002 200.57633747 58.75699254 200.60619321 51.26236951 200.64811271 C44.80944637 200.68292771 38.35665862 200.69825853 31.9036423 200.69895416 C28.0578517 200.69974348 24.2124797 200.70832049 20.36678696 200.73695183 C16.74352991 200.76332439 13.12103269 200.76523274 9.49772263 200.74929619 C7.55342028 200.74664635 5.60913144 200.76853633 3.66496277 200.79148865 C-8.52298735 200.69113605 -17.77365669 196.95239869 -26.52101135 188.47138977 C-35.44322714 178.71271625 -37.09681609 168.51846376 -37.05006409 155.61616516 C-37.05577719 154.27146847 -37.06274507 152.92677662 -37.07086182 151.58209229 C-37.08870441 147.95389954 -37.08764183 144.32594981 -37.08191943 140.69772649 C-37.07881471 137.65864357 -37.0849342 134.61960648 -37.09095818 131.58053011 C-37.10497248 124.40617126 -37.10346792 117.23193157 -37.09205627 110.05757141 C-37.08057708 102.67807378 -37.09465423 95.29893967 -37.12145275 87.91948992 C-37.14366627 81.562491 -37.15023448 75.20560571 -37.14437634 68.84857076 C-37.14101914 65.06109906 -37.14333884 61.27386032 -37.16062737 57.48642159 C-37.17618521 53.923098 -37.17204446 50.36030972 -37.15332222 46.79700661 C-37.14792714 44.88101472 -37.16208283 42.96499828 -37.17701721 41.04905701 C-37.07623715 29.14199332 -33.19336627 19.22539256 -25.0561676 10.42842102 C-18.03293137 3.95051843 -9.53839674 0.04077499 0 0 Z " fill="#FEFEFE" transform="translate(36.64601135253906,-0.1471710205078125)"/>
<path d="M0 0 C13.2 0 26.4 0 40 0 C40 13.2 40 26.4 40 40 C26.8 40 13.6 40 0 40 C0 34.06 0 28.12 0 22 C-5.94 22 -11.88 22 -18 22 C-18 35.2 -18 48.4 -18 62 C-25.26 62 -32.52 62 -40 62 C-40 67.94 -40 73.88 -40 80 C-53.2 80 -66.4 80 -80 80 C-80 66.8 -80 53.6 -80 40 C-66.8 40 -53.6 40 -40 40 C-40 45.94 -40 51.88 -40 58 C-34.06 58 -28.12 58 -22 58 C-22 44.8 -22 31.6 -22 18 C-14.74 18 -7.48 18 0 18 C0 12.06 0 6.12 0 0 Z " fill="#0A0A0A" transform="translate(120,40)"/>
<path d="M0 0 C13.2 0 26.4 0 40 0 C40 13.2 40 26.4 40 40 C26.8 40 13.6 40 0 40 C0 26.8 0 13.6 0 0 Z " fill="#808080" transform="translate(120,120)"/>
<path d="M0 0 C8.58 0 17.16 0 26 0 C26 8.58 26 17.16 26 26 C17.42 26 8.84 26 0 26 C0 17.42 0 8.84 0 0 Z " fill="#FFFFFF" transform="translate(47,87)"/>
<path d="M0 0 C4.62 0 9.24 0 14 0 C14 4.62 14 9.24 14 14 C9.38 14 4.76 14 0 14 C0 9.38 0 4.76 0 0 Z " fill="#141414" transform="translate(53,93)"/>
<path d="M0 0 C-1.44077046 3.36179774 -3.24750021 5.59156268 -6 8 C-6.66 8 -7.32 8 -8 8 C-6.48291727 4.46014029 -4.24676932 0 0 0 Z " fill="#9F9F9F" transform="translate(16,8)"/>
</svg>
